<svg xmlns="http://www.w3.org/2000/svg" viewBox="0 0 400 300">
  <!-- Background elements -->
  <circle cx="200" cy="150" r="120" fill="#dbeafe" opacity="0.5"/>
  <circle cx="320" cy="80" r="40" fill="#dcfce7" opacity="0.4"/>
  <circle cx="80" cy="220" r="30" fill="#fef3c7" opacity="0.4"/>
  
  <!-- Laptop -->
  <rect x="100" y="100" width="200" height="120" rx="8" fill="#1e293b"/>
  <rect x="110" y="110" width="180" height="100" rx="4" fill="#0f172a"/>
  
  <!-- Screen content - code -->
  <rect x="120" y="120" width="80" height="8" rx="2" fill="#22c55e"/>
  <rect x="120" y="135" width="60" height="6" rx="2" fill="#60a5fa"/>
  <rect x="120" y="148" width="90" height="6" rx="2" fill="#a78bfa"/>
  <rect x="120" y="161" width="50" height="6" rx="2" fill="#f472b6"/>
  <rect x="120" y="174" width="70" height="6" rx="2" fill="#fbbf24"/>
  <rect x="120" y="187" width="40" height="6" rx="2" fill="#22c55e"/>
  
  <!-- App preview on screen -->
  <rect x="220" y="120" width="60" height="80" rx="4" fill="#2563eb"/>
  <rect x="225" y="125" width="50" height="8" rx="2" fill="white" opacity="0.3"/>
  <rect x="225" y="138" width="50" height="40" rx="2" fill="white" opacity="0.2"/>
  <circle cx="250" cy="185" r="8" fill="#22c55e"/>
  <text x="250" y="189" font-family="Arial" font-size="10" fill="white" text-anchor="middle">✓</text>
  
  <!-- Laptop base -->
  <path d="M80 220 L100 220 L100 225 L300 225 L300 220 L320 220 L310 240 L90 240 Z" fill="#334155"/>
  
  <!-- Floating elements - testers -->
  <circle cx="340" cy="140" r="20" fill="#e5e7eb"/>
  <circle cx="340" cy="132" r="8" fill="#9ca3af"/>
  <ellipse cx="340" cy="152" rx="12" ry="8" fill="#9ca3af"/>
  <circle cx="340" cy="140" r="22" stroke="#22c55e" stroke-width="2" fill="none"/>
  
  <circle cx="60" cy="130" r="18" fill="#e5e7eb"/>
  <circle cx="60" cy="123" r="7" fill="#9ca3af"/>
  <ellipse cx="60" cy="141" rx="10" ry="7" fill="#9ca3af"/>
  <circle cx="60" cy="130" r="20" stroke="#22c55e" stroke-width="2" fill="none"/>
  
  <circle cx="350" cy="220" r="16" fill="#e5e7eb"/>
  <circle cx="350" cy="214" r="6" fill="#9ca3af"/>
  <ellipse cx="350" cy="230" rx="9" ry="6" fill="#9ca3af"/>
  <circle cx="350" cy="220" r="18" stroke="#22c55e" stroke-width="2" fill="none"/>
  
  <!-- Dollar signs floating -->
  <text x="70" cy="80" font-family="Arial" font-size="24" font-weight="bold" fill="#22c55e" opacity="0.6">$</text>
  <text x="330" y="60" font-family="Arial" font-size="20" font-weight="bold" fill="#22c55e" opacity="0.5">$</text>
  <text x="50" y="180" font-family="Arial" font-size="18" font-weight="bold" fill="#22c55e" opacity="0.4">$</text>
</svg>
